<?xml version="1.0" standalone="no"?>
<!DOCTYPE svg PUBLIC "-//W3C//DTD SVG 20010904//EN"
 "http://www.w3.org/TR/2001/REC-SVG-20010904/DTD/svg10.dtd">
<svg version="1.0" xmlns="http://www.w3.org/2000/svg"
 width="700.000000pt" height="700.000000pt" viewBox="0 0 700.000000 700.000000"
 preserveAspectRatio="xMidYMid meet">
<metadata>
Created by potrace 1.14, written by Peter Selinger 2001-2017
</metadata>
<g transform="translate(0.000000,700.000000) scale(0.100000,-0.100000)"
fill="#000000" stroke="none">
<path d="M3289 5546 c-2 -2 -44 -7 -94 -11 -106 -9 -138 -12 -185 -20 -19 -3
-75 -13 -125 -21 -348 -59 -767 -214 -1080 -399 -42 -25 -78 -45 -80 -45 -3 0
-222 -147 -239 -161 -247 -197 -426 -364 -563 -525 -62 -73 -187 -237 -236
-310 l-28 -41 -57 27 c-164 80 -357 47 -480 -84 -89 -94 -122 -183 -118 -316
2 -73 8 -97 34 -154 18 -37 55 -92 85 -124 l54 -57 46 -185 c26 -102 49 -194
52 -205 2 -11 29 -119 60 -240 31 -121 58 -227 60 -235 2 -8 13 -52 24 -97 12
-46 30 -120 42 -165 11 -46 22 -90 24 -98 31 -143 102 -383 123 -419 59 -102
166 -179 278 -200 30 -6 1050 -9 2644 -8 l2595 2 68 29 c82 34 171 116 206
189 23 47 78 238 97 337 3 14 9 39 14 55 7 24 92 357 105 415 2 8 31 123 65
255 33 132 62 247 64 255 2 8 21 83 41 165 37 149 38 150 90 206 309 326 -7
834 -434 698 -20 -6 -50 -20 -67 -30 l-31 -19 -46 65 c-26 36 -47 69 -47 74 0
5 -4 11 -8 13 -4 2 -30 32 -57 68 -109 142 -308 354 -460 489 -188 168 -462
349 -724 480 -224 113 -567 233 -786 276 -89 18 -267 46 -315 51 -30 3 -66 8
-80 11 -30 6 -525 15 -531 9z"/>
</g>
</svg>
